<svg width="529" height="574" viewBox="0 0 529 574" fill="none" xmlns="http://www.w3.org/2000/svg">
<path fill-rule="evenodd" clip-rule="evenodd" d="M199.747 0.314048C148.559 4.70014 113.143 50.5735 76.8542 86.9411C46.1113 117.751 18.2153 151.407 7.01416 193.465C-3.77398 233.973 14.6042 273.925 15.897 315.825C17.9222 381.461 -21.4279 454.553 16.7192 508.004C55.3009 562.064 133.394 576.321 199.747 573.431C264.569 570.608 318.271 529.585 371.547 492.551C426.046 454.666 486.831 419.047 510.846 357.17C535.486 293.682 535.842 216.814 501.355 158.09C468.92 102.861 395.709 94.171 338.956 64.4827C292.545 40.2045 251.933 -4.15755 199.747 0.314048Z" fill="#E3F3FF"/>
</svg>
