<?xml version="1.0" encoding="utf-8"?>
<!-- Generator: Adobe Illustrator 24.1.1, SVG Export Plug-In . SVG Version: 6.00 Build 0)  -->
<svg version="1.1" id="Layer_1" xmlns="http://www.w3.org/2000/svg" xmlns:xlink="http://www.w3.org/1999/xlink" x="0px" y="0px"
	 viewBox="0 0 500 500" style="enable-background:new 0 0 500 500;" xml:space="preserve">
<style type="text/css">
	.st0{fill:#0E3050;}
</style>
<g>
	<path class="st0" d="M100,158.26h155.43v29.97H100V158.26z M177.85,99.23c5.79,0,10.79,2.12,14.99,6.36
		c4.19,4.24,6.29,9.3,6.29,15.18c0,5.88-2.1,10.9-6.29,15.05c-4.2,4.15-9.28,6.23-15.24,6.23s-11.01-2.08-15.12-6.23
		c-4.11-4.15-6.16-9.17-6.16-15.05c0-5.88,2.12-10.94,6.36-15.18C166.9,101.35,171.96,99.23,177.85,99.23z M177.85,204.45
		c5.88,0,10.9,2.1,15.05,6.29c4.15,4.2,6.23,9.28,6.23,15.24c0,5.88-2.06,10.9-6.16,15.05c-4.11,4.15-9.15,6.23-15.12,6.23
		s-11.05-2.08-15.24-6.23c-4.2-4.15-6.29-9.17-6.29-15.05c0-5.88,2.12-10.94,6.36-15.18C166.9,206.57,171.96,204.45,177.85,204.45z"
		/>
	<g>
		<path class="st0" d="M326.39,190.78c0-27.54-17.25-34.17-28.37-34.17c-13.27,0-22.56,7.47-26.54,15.1h-0.33l-0.83-13.27h-12.94
			c0.5,6.64,0.66,13.44,0.66,21.73v58.56h14.6v-48.27c0-2.49,0.33-4.98,1-6.8c2.49-8.13,9.95-14.93,19.58-14.93
			c13.77,0,18.58,10.78,18.58,23.72v33.9c4.6-2.31,9.48-4.24,14.6-5.79V190.78z"/>
		<path class="st0" d="M357.22,381.37c-43.58,0-68.82-28.16-68.82-72.01c0-47.03,27.9-73.87,69.88-73.87
			c14.88,0,27.37,3.19,36.14,7.44l5.58-18.87c-6.11-3.19-20.19-7.97-42.51-7.97c-11.13,0-21.54,1.55-31.1,4.44v18.18h-14.6v-12.39
			c-29.62,14.89-47.83,45.02-47.83,83.83c0,58.72,38,90.61,88.48,90.61c21.79,0,38.79-4.25,47.3-8.5l-4.78-18.33
			C385.65,378.45,371.3,381.37,357.22,381.37z"/>
	</g>
</g>
</svg>
