<svg width="410" height="338" viewBox="0 0 410 338" fill="none" xmlns="http://www.w3.org/2000/svg">
<g clip-path="url(#clip0_10:389)">
<path d="M113.817 198.433H33.0156V273.979H113.817V198.433Z" fill="#3F3D56"/>
<path d="M146.832 300.246H0V172.166H146.832V300.246ZM0.868829 299.378H145.964V173.034H0.868829V299.378Z" fill="#3F3D56"/>
<path d="M348.15 123.631C335.917 123.631 323.959 120.006 313.788 113.213C303.616 106.421 295.689 96.7665 291.008 85.4712C286.326 74.1759 285.102 61.7469 287.488 49.7559C289.875 37.7648 295.765 26.7504 304.415 18.1053C313.065 9.4603 324.086 3.57295 336.083 1.18779C348.081 -1.19737 360.517 0.0267876 371.819 4.70545C383.12 9.38412 392.78 17.3072 399.576 27.4727C406.373 37.6382 410 49.5896 410 61.8155C409.981 78.2043 403.459 93.9165 391.864 105.505C380.269 117.094 364.548 123.612 348.15 123.631ZM348.15 0.915813C336.098 0.915813 324.317 4.48751 314.297 11.1793C304.276 17.871 296.466 27.3822 291.854 38.5102C287.242 49.6381 286.036 61.883 288.387 73.6964C290.738 85.5098 296.541 96.3611 305.063 104.878C313.585 113.395 324.442 119.195 336.262 121.545C348.082 123.895 360.334 122.689 371.468 118.079C382.602 113.47 392.119 105.664 398.814 95.6495C405.51 85.6346 409.084 73.8603 409.084 61.8155C409.065 45.6695 402.64 30.19 391.216 18.773C379.793 7.35605 364.305 0.934014 348.15 0.91583V0.915813Z" fill="#3F3D56"/>
<path d="M346.317 91.5785C362.764 91.5785 376.097 78.2531 376.097 61.8155C376.097 45.3778 362.764 32.0525 346.317 32.0525C329.87 32.0525 316.538 45.3778 316.538 61.8155C316.538 78.2531 329.87 91.5785 346.317 91.5785Z" fill="#3F3D56"/>
<path d="M395.95 152.065L378.26 162.272L388.474 179.952L406.164 169.745L395.95 152.065Z" fill="#FFA563"/>
<path d="M125.978 52.9812L108.288 63.1887L118.501 80.8686L136.191 70.6611L125.978 52.9812Z" fill="#3F3D56"/>
<path d="M371.305 263.464L353.616 273.672L363.829 291.352L381.519 281.144L371.305 263.464Z" fill="#E5E5E5"/>
<path d="M80.8013 228.825H66.0312V243.587H80.8013V228.825Z" fill="#77CFDC"/>
<path d="M346.317 69.1418C350.366 69.1418 353.648 65.8617 353.648 61.8155C353.648 57.7693 350.366 54.4893 346.317 54.4893C342.269 54.4893 338.987 57.7693 338.987 61.8155C338.987 65.8617 342.269 69.1418 346.317 69.1418Z" fill="#FFA563"/>
<path d="M321.256 161.289L283.309 183.185L305.218 221.11L343.164 199.214L321.256 161.289Z" fill="#389AA7"/>
<path d="M335.505 336.88H100.26V338H335.505V336.88Z" fill="#CBCBCB"/>
<path d="M189.535 185.876C188.853 185 188.372 183.986 188.125 182.905C187.878 181.824 187.871 180.701 188.105 179.617C188.339 178.533 188.808 177.513 189.479 176.629C190.15 175.745 191.007 175.02 191.989 174.503L190.403 157.237L200.667 153.715L202.563 178.129C203.323 179.836 203.429 181.761 202.863 183.541C202.297 185.321 201.098 186.831 199.492 187.786C197.886 188.741 195.985 189.074 194.15 188.722C192.315 188.37 190.673 187.357 189.535 185.876Z" fill="#FFB8B8"/>
<path d="M200.553 86.7781C200.553 86.7781 207.597 72.0052 213.855 77.2018C220.114 82.3983 205.275 126.079 205.275 126.079L203.018 168.482L191.123 167.294L187.76 125.981L200.553 86.7781Z" fill="#CCCCCC"/>
<path d="M106.079 305.336L114.909 312.479L146.679 281.841L133.647 271.298L106.079 305.336Z" fill="#FFB8B8"/>
<path d="M106.161 300.633L123.549 314.7L123.55 314.701C126.488 317.079 128.362 320.526 128.757 324.284C129.153 328.042 128.039 331.804 125.66 334.741L125.369 335.101L96.8989 312.068L106.161 300.633Z" fill="#2F2E41"/>
<path d="M228.788 325.165L240.149 325.165L245.552 281.373L228.787 281.374L228.788 325.165Z" fill="#FFB8B8"/>
<path d="M225.891 321.458L248.262 321.457H248.263C252.044 321.457 255.671 322.959 258.344 325.631C261.018 328.303 262.52 331.927 262.52 335.706V336.169L225.892 336.17L225.891 321.458Z" fill="#2F2E41"/>
<path d="M248.722 119.865C248.722 119.865 270.033 145.795 265.4 171.725C260.767 197.655 257.061 217.102 257.061 217.102L249.648 275.444C249.648 275.444 252.428 291.333 248.722 295.428C248.722 295.428 254.281 305.078 244.089 308.783C233.896 312.487 228.397 307.503 228.397 307.503C228.397 307.503 220.924 296.744 225.557 293.966L227.509 179.471L153.284 276.37C153.284 276.37 151.919 288.157 142.409 288.283L131.045 296.744L118.073 289.335L124.559 281.001C124.559 281.001 120.853 271.74 129.192 269.888L177.375 206.916L189.42 174.503C189.42 174.503 195.906 149.5 213.512 139.313V128.474L248.722 119.865Z" fill="#2F2E41"/>
<path d="M212.122 74.9512C214.927 71.6375 218.854 69.4708 223.155 68.8639C227.456 68.257 231.829 69.2523 235.443 71.6602L236.213 72.173C244.437 81.4818 249.965 92.8567 252.201 105.073L255.671 124.033L212.122 133.461L201.912 98.2703C200.616 93.8037 200.928 89.0244 202.794 84.7638C204.659 80.5033 207.96 77.031 212.122 74.9512V74.9512Z" fill="#CCCCCC"/>
<path d="M283.671 189.907C282.463 189.512 281.357 188.858 280.43 187.99C279.503 187.122 278.778 186.062 278.305 184.884C277.833 183.705 277.625 182.438 277.695 181.17C277.766 179.903 278.114 178.666 278.714 177.547L266.152 162.181L273.633 152.273L291.069 174.223C292.882 175.356 294.217 177.114 294.82 179.165C295.423 181.215 295.252 183.416 294.34 185.349C293.428 187.282 291.839 188.814 289.872 189.654C287.906 190.494 285.699 190.584 283.671 189.907Z" fill="#FFB8B8"/>
<path d="M230.653 88.8422C230.653 88.8422 227.874 70.3209 237.139 71.247C246.405 72.1731 260.304 123.107 260.304 123.107L285.322 164.78L273.276 171.262L243.626 134.219L230.653 88.8422Z" fill="#CCCCCC"/>
<path d="M247.621 61.7649H203.498C202.59 61.7639 201.72 61.4031 201.078 60.7617C200.437 60.1203 200.076 59.2506 200.075 58.3435V39.3355C200.075 32.5802 202.76 26.1016 207.539 21.325C212.318 16.5483 218.801 13.8647 225.56 13.8647C232.319 13.8647 238.801 16.5483 243.58 21.325C248.36 26.1016 251.045 32.5802 251.045 39.3355V58.3435C251.044 59.2506 250.683 60.1203 250.041 60.7617C249.399 61.4031 248.529 61.7639 247.621 61.7649Z" fill="#2F2E41"/>
<path d="M247.192 51.6054C252.141 42.5558 248.814 31.2093 239.759 26.2623C230.704 21.3154 219.351 24.6412 214.401 33.6908C209.452 42.7405 212.779 54.087 221.834 59.0339C230.889 63.9809 242.242 60.655 247.192 51.6054Z" fill="#FFB8B8"/>
<path d="M257.074 41.2362H233.559L233.318 37.3648L232.113 41.2362H228.492L228.014 33.5632L225.624 41.2362H218.619V40.856C218.619 29.746 226.5 20.7075 236.188 20.7075H239.504C249.192 20.7075 257.074 29.746 257.074 40.856L257.074 41.2362Z" fill="#2F2E41"/>
<path d="M234.533 65.313C234.245 65.3128 233.958 65.2907 233.674 65.2469L205.686 60.9384V31.803C205.686 30.3293 205.976 28.87 206.541 27.5085C207.105 26.1469 207.932 24.9098 208.975 23.8677C210.017 22.8256 211.255 21.999 212.617 21.435C213.98 20.8711 215.44 20.5808 216.914 20.5808H236.496L235.733 21.3567C225.12 32.1555 233.116 49.6658 238.826 59.1423C239.245 59.8235 239.435 60.6211 239.366 61.4179C239.298 62.2147 238.976 62.9684 238.446 63.5683C237.96 64.1264 237.358 64.5716 236.682 64.873C236.006 65.1743 235.273 65.3245 234.533 65.313Z" fill="#2F2E41"/>
</g>
<defs>
<clipPath id="clip0_10:389">
<rect width="410" height="338" fill="white"/>
</clipPath>
</defs>
</svg>
