<svg width="177" height="177" viewBox="0 0 177 177" fill="none" xmlns="http://www.w3.org/2000/svg">
<circle cx="88.38" cy="88.5879" r="88.1512" fill="#44B4C5"/>
<path d="M48.6291 40.2727V35.5466H58.0813V68.6749H52.8553V40.2727H48.6291Z" fill="white"/>
<path d="M74.8494 97.2242C78.0897 94.4227 80.6381 92.1274 82.4945 90.3385C84.3847 88.5158 85.9542 86.6257 87.2031 84.668C88.452 82.7103 89.0764 80.7526 89.0764 78.7949C89.0764 76.7697 88.587 75.1833 87.6082 74.0357C86.6631 72.8881 85.161 72.3143 83.1021 72.3143C81.1106 72.3143 79.558 72.9556 78.4441 74.2382C77.364 75.4871 76.7902 77.1747 76.7227 79.3012H71.1534C71.2547 75.4533 72.4023 72.5168 74.5963 70.4916C76.824 68.4326 79.6424 67.4031 83.0515 67.4031C86.7306 67.4031 89.5996 68.4157 91.6586 70.4409C93.7513 72.4661 94.7976 75.1664 94.7976 78.5417C94.7976 80.972 94.1732 83.3178 92.9243 85.5793C91.7092 87.807 90.2409 89.8153 88.5195 91.6043C86.8318 93.3594 84.6716 95.4015 82.0389 97.7305L79.7605 99.7557H95.8102V104.566H71.204V100.363L74.8494 97.2242Z" fill="white"/>
<path d="M107.424 108.505C107.636 105.207 108.895 102.636 111.2 100.792C113.541 98.9476 116.52 98.0256 120.137 98.0256C122.62 98.0256 124.765 98.4689 126.574 99.3555C128.382 100.242 129.748 101.448 130.67 102.973C131.592 104.498 132.053 106.218 132.053 108.133C132.053 110.331 131.468 112.211 130.297 113.771C129.127 115.332 127.726 116.378 126.095 116.91V117.123C128.187 117.761 129.819 118.931 130.989 120.633C132.159 122.3 132.744 124.446 132.744 127.07C132.744 129.162 132.266 131.024 131.308 132.655C130.351 134.287 128.932 135.581 127.053 136.539C125.173 137.461 122.921 137.922 120.297 137.922C116.467 137.922 113.311 136.946 110.828 134.996C108.381 133.01 107.069 130.173 106.892 126.485H112.743C112.885 128.364 113.612 129.907 114.924 131.113C116.236 132.283 118.009 132.868 120.244 132.868C122.407 132.868 124.074 132.283 125.244 131.113C126.414 129.907 126.999 128.364 126.999 126.485C126.999 124.002 126.201 122.247 124.606 121.219C123.045 120.155 120.634 119.623 117.371 119.623H115.988V114.622H117.424C120.297 114.587 122.478 114.108 123.967 113.186C125.492 112.264 126.255 110.81 126.255 108.824C126.255 107.122 125.705 105.774 124.606 104.781C123.506 103.753 121.946 103.239 119.924 103.239C117.938 103.239 116.396 103.753 115.296 104.781C114.197 105.774 113.541 107.016 113.328 108.505H107.424Z" fill="white"/>
</svg>
