<svg xmlns="http://www.w3.org/2000/svg" width="810" viewBox="0 0 810 810" height="810" version="1.0"><path fill="#FFF" d="M-81 -81H891V891H-81z"/><path fill="#FFF" d="M-81 -81H891V891H-81z"/><path fill="#FFF" d="M-81 -81H891V891H-81z"/><path transform="matrix(.83262 0 0 .83262 226.843 389.693)" fill="none" d="M 147.079507 103.000076 C 146.122442 103.000076 145.362421 102.709203 144.79475 102.122767 C 144.245845 101.517564 143.973738 100.68717 143.973738 99.631584 L 143.973738 16.718817 C 143.973738 15.761753 144.170781 15.072103 144.560175 14.640486 C 144.973027 14.190102 145.615761 13.964911 146.49307 13.964911 L 180.098239 13.964911 C 181.135059 13.964911 181.866932 14.105655 182.293858 14.377762 C 182.744241 14.649869 183.133635 15.236305 183.466731 16.137072 L 195.946104 54.278915 C 196.180679 54.92165 196.452786 55.245363 196.767116 55.245363 C 197.020456 55.245363 197.264414 54.92165 197.498989 54.278915 L 208.660052 17.455382 C 209.288712 15.128401 210.363064 13.964911 211.883108 13.964911 L 246.572012 13.964911 C 248.016992 13.964911 248.739482 14.804688 248.739482 16.484243 L 248.739482 99.514296 C 248.739482 100.804457 248.439226 101.709915 247.834024 102.240054 C 247.228821 102.746735 246.248299 103.000076 244.90184 103.000076 L 224.601747 103.000076 C 223.410108 103.000076 222.589097 102.765501 222.138713 102.296352 C 221.707096 101.808437 221.495979 101.048415 221.495979 100.011595 L 221.495979 46.106333 C 221.495979 45.482365 221.336468 45.168035 221.026829 45.168035 C 220.613978 45.168035 220.294956 45.52928 220.060381 46.25177 L 202.772228 100.832606 C 202.209248 102.277586 201.252184 103.000076 199.901034 103.000076 L 187.304373 103.000076 C 185.859393 103.000076 184.892946 102.277586 184.40503 100.832606 L 167.149717 47.190068 C 166.896376 46.387823 166.610195 45.989046 166.300556 45.989046 C 165.887705 45.989046 165.681279 46.430046 165.681279 47.307356 L 165.681279 100.363457 C 165.681279 101.400277 165.52646 102.099309 165.216821 102.474629 C 164.902491 102.826491 164.180001 103.000076 163.04466 103.000076 Z M 286.294888 13.964911 C 287.739868 13.964911 288.462358 14.804688 288.462358 16.484243 L 288.462358 99.514296 C 288.462358 100.804457 288.138645 101.709915 287.49591 102.240054 C 286.848484 102.746735 285.853888 103.000076 284.507429 103.000076 L 264.465368 103.000076 C 263.254963 103.000076 262.405803 102.765501 261.917887 102.296352 C 261.448738 101.808437 261.214163 101.048415 261.214163 100.011595 L 261.214163 16.718817 C 261.214163 15.841508 261.411206 15.165933 261.8006 14.701475 C 262.20876 14.208868 262.776431 13.964911 263.498921 13.964911 Z M 377.985439 13.964911 C 379.177078 13.964911 379.772898 14.640486 379.772898 15.986944 L 379.772898 100.832606 C 379.772898 101.475341 379.510174 102.005479 378.980035 102.413639 C 378.473354 102.803033 377.821236 103.000076 377.018991 103.000076 L 360.584689 103.000076 C 359.862199 103.000076 359.275762 102.882789 358.825379 102.648214 C 358.393761 102.394873 357.896463 101.916341 357.328792 101.212617 L 324.342901 56.446385 C 324.009805 56.038225 323.728315 55.869331 323.493741 55.949087 C 323.259166 56.028842 323.141879 56.2728 323.141879 56.68096 L 323.141879 100.363457 C 323.221634 101.320521 323.033974 102.005479 322.583591 102.413639 C 322.156665 102.803033 321.373186 103.000076 320.242536 103.000076 L 303.920829 103.000076 C 301.931636 103.000076 300.932348 102.197831 300.932348 100.598031 L 300.932348 16.718817 C 300.932348 14.884443 301.814349 13.964911 303.568967 13.964911 L 323.141879 13.964911 C 324.178699 13.964911 324.948104 14.105655 325.454785 14.377762 C 325.984924 14.649869 326.57136 15.236305 327.214095 16.137072 L 356.010483 56.21181 C 356.50309 56.915534 356.939398 57.267397 357.328792 57.267397 C 357.741644 57.267397 357.94807 56.751332 357.94807 55.714512 L 357.94807 16.484243 C 357.94807 14.804688 358.825379 13.964911 360.584689 13.964911 Z M 409.657712 13.964911 C 419.167369 13.964911 425.088034 14.007134 427.410324 14.082198 C 443.014231 14.649869 454.813338 18.867521 462.802951 26.739848 C 470.811331 34.612174 474.813175 45.107045 474.813175 58.233844 C 474.813175 67.044469 473.00695 74.808891 469.3945 81.52711 C 465.800816 88.245329 460.438439 93.509184 453.307368 97.318677 C 446.199756 101.104713 437.529875 103.000076 427.293036 103.000076 L 395.742742 103.000076 C 394.527645 103.000076 393.640953 102.727969 393.073282 102.179065 C 392.529069 101.611394 392.252271 100.68717 392.252271 99.397009 L 392.252271 16.953392 C 392.252271 15.841508 392.486845 15.072103 392.955995 14.640486 C 393.44391 14.190102 394.29307 13.964911 395.508167 13.964911 Z M 420.701488 32.805949 C 420.293328 32.805949 419.988381 32.923236 419.791338 33.157811 C 419.598987 33.392386 419.500465 33.828695 419.500465 34.476121 L 419.500465 82.34343 C 419.500465 83.070611 419.617753 83.558527 419.852328 83.811867 C 420.086902 84.046442 420.527903 84.163729 421.170637 84.163729 L 422.019798 84.163729 C 429.929656 84.163729 435.944151 82.099472 440.067973 77.980341 C 444.187105 73.861209 446.24667 67.161756 446.24667 57.881982 C 446.24667 49.873603 444.684403 43.920097 441.559868 40.012083 C 438.4541 36.085303 433.903351 33.838078 427.907622 33.275098 Z M 537.801168 37.844613 C 535.887038 35.752207 533.827473 34.152408 531.617779 33.040524 C 529.431543 31.923948 526.260094 31.370352 522.098739 31.370352 C 517.937384 31.370352 514.850381 31.975555 512.842422 33.18596 C 510.848537 34.377599 509.853941 35.813196 509.853941 37.492751 C 509.853941 40.363945 512.410805 42.395362 517.529224 43.587001 L 537.449306 48.771102 C 544.735195 50.605476 550.21486 53.828532 553.883608 58.44027 C 557.575813 63.028551 559.424262 68.526981 559.424262 74.935561 C 559.424262 80.851535 557.861994 86.007486 554.73746 90.403416 C 551.608233 94.794654 547.146623 98.195987 541.347937 100.598031 C 535.544559 103.000076 528.770043 104.201098 521.015004 104.201098 C 512.204379 104.201098 504.177233 102.746735 496.933567 99.838009 C 489.703976 96.905826 484.698152 93.077567 481.902022 88.353233 C 481.493862 87.550988 481.287436 86.955168 481.287436 86.565774 C 481.287436 85.763529 481.728436 85.041039 482.605746 84.398304 L 494.967831 75.869169 C 495.849832 75.324955 496.647386 75.052849 497.369876 75.052849 C 498.251877 75.052849 498.974367 75.400019 499.542038 76.103743 C 502.253721 79.641129 505.007628 82.132313 507.803758 83.577293 C 510.613963 85.003507 514.334317 85.716614 518.964821 85.716614 C 523.45458 85.716614 527.00135 85.097336 529.600437 83.868165 C 532.194833 82.620228 533.494377 80.921907 533.494377 78.773203 C 533.494377 77.248468 532.851642 75.930158 531.561481 74.818274 C 530.290087 73.682933 528.418181 72.833772 525.936381 72.266102 L 507.686471 67.842023 C 500.499102 66.087404 494.784863 62.784593 490.543753 57.942972 C 486.307334 53.096659 484.186779 47.523164 484.186779 41.213105 C 484.186779 35.996165 485.702132 31.210841 488.728145 26.857135 C 491.777616 22.503429 496.09379 19.064564 501.676667 16.545232 C 507.283002 14.0259 513.766646 12.763888 521.132291 12.763888 C 528.338425 12.763888 535.019112 13.946145 541.16966 16.310657 C 547.3249 18.656404 551.767744 21.790322 554.502885 25.717102 C 555.047098 26.439592 555.319205 27.119859 555.319205 27.767285 C 555.319205 28.311498 555.047098 28.832254 554.502885 29.320169 L 541.404235 38.811061 C 541.014841 39.125391 540.573841 39.28021 540.085925 39.28021 C 539.541712 39.28021 538.776999 38.801678 537.801168 37.844613 Z M 537.801168 37.844613" stroke="#33144D" stroke-width="4.5"/><g fill="#33144D"><g><g><path d="M 69.40625 -74.203125 C 70.40625 -74.203125 70.90625 -73.632812 70.90625 -72.5 L 70.90625 -1.796875 C 70.90625 -1.265625 70.6875 -0.832031 70.25 -0.5 C 69.8125 -0.164062 69.257812 0 68.59375 0 L 54.90625 0 C 54.300781 0 53.816406 -0.0976562 53.453125 -0.296875 C 53.085938 -0.492188 52.671875 -0.894531 52.203125 -1.5 L 24.703125 -38.796875 C 24.429688 -39.128906 24.195312 -39.257812 24 -39.1875 C 23.800781 -39.125 23.703125 -38.925781 23.703125 -38.59375 L 23.703125 -2.203125 C 23.765625 -1.398438 23.613281 -0.832031 23.25 -0.5 C 22.882812 -0.164062 22.234375 0 21.296875 0 L 7.703125 0 C 6.035156 0 5.203125 -0.664062 5.203125 -2 L 5.203125 -71.90625 C 5.203125 -73.4375 5.9375 -74.203125 7.40625 -74.203125 L 23.703125 -74.203125 C 24.566406 -74.203125 25.210938 -74.082031 25.640625 -73.84375 C 26.078125 -73.613281 26.5625 -73.132812 27.09375 -72.40625 L 51.09375 -39 C 51.5 -38.394531 51.867188 -38.09375 52.203125 -38.09375 C 52.535156 -38.09375 52.703125 -38.53125 52.703125 -39.40625 L 52.703125 -72.09375 C 52.703125 -73.5 53.4375 -74.203125 54.90625 -74.203125 Z M 69.40625 -74.203125" transform="translate(82.163 405.9)"/></g></g></g><g fill="#33144D"><g><g><path d="M 68.40625 -29.296875 C 68.40625 -18.367188 65.632812 -10.585938 60.09375 -5.953125 C 54.5625 -1.316406 46.664062 1 36.40625 1 C 24.863281 1 16.644531 -1.664062 11.75 -7 C 6.851562 -12.332031 4.40625 -20.429688 4.40625 -31.296875 L 4.40625 -71.90625 C 4.40625 -72.632812 4.570312 -73.195312 4.90625 -73.59375 C 5.238281 -74 5.703125 -74.203125 6.296875 -74.203125 L 25.296875 -74.203125 C 26.492188 -74.203125 27.09375 -73.5 27.09375 -72.09375 L 27.09375 -28.90625 C 27.09375 -23.96875 28.039062 -20.398438 29.9375 -18.203125 C 31.84375 -16.003906 34.5625 -14.90625 38.09375 -14.90625 C 41.5625 -14.90625 44.363281 -16.003906 46.5 -18.203125 C 48.632812 -20.398438 49.703125 -24.066406 49.703125 -29.203125 L 49.703125 -71.90625 C 49.703125 -73.4375 50.332031 -74.203125 51.59375 -74.203125 L 66.59375 -74.203125 C 67.800781 -74.203125 68.40625 -73.5 68.40625 -72.09375 Z M 68.40625 -29.296875" transform="translate(158.26 405.9)"/></g></g></g><g fill="#33144D"><g><g><path d="M 7.796875 0 C 6.992188 0 6.359375 -0.25 5.890625 -0.75 C 5.429688 -1.25 5.203125 -1.929688 5.203125 -2.796875 L 5.203125 -71.90625 C 5.203125 -72.695312 5.367188 -73.273438 5.703125 -73.640625 C 6.035156 -74.015625 6.566406 -74.203125 7.296875 -74.203125 L 35.296875 -74.203125 C 36.160156 -74.203125 36.773438 -74.082031 37.140625 -73.84375 C 37.515625 -73.613281 37.832031 -73.132812 38.09375 -72.40625 L 48.5 -40.59375 C 48.695312 -40.0625 48.929688 -39.796875 49.203125 -39.796875 C 49.398438 -39.796875 49.597656 -40.0625 49.796875 -40.59375 L 59.09375 -71.296875 C 59.632812 -73.234375 60.535156 -74.203125 61.796875 -74.203125 L 90.703125 -74.203125 C 91.898438 -74.203125 92.5 -73.5 92.5 -72.09375 L 92.5 -2.90625 C 92.5 -1.832031 92.25 -1.078125 91.75 -0.640625 C 91.25 -0.210938 90.429688 0 89.296875 0 L 72.40625 0 C 71.40625 0 70.71875 -0.195312 70.34375 -0.59375 C 69.976562 -1 69.796875 -1.632812 69.796875 -2.5 L 69.796875 -47.40625 C 69.796875 -47.9375 69.664062 -48.203125 69.40625 -48.203125 C 69.070312 -48.203125 68.800781 -47.898438 68.59375 -47.296875 L 54.203125 -1.796875 C 53.734375 -0.597656 52.929688 0 51.796875 0 L 41.296875 0 C 40.097656 0 39.300781 -0.597656 38.90625 -1.796875 L 24.5 -46.5 C 24.300781 -47.164062 24.066406 -47.5 23.796875 -47.5 C 23.460938 -47.5 23.296875 -47.132812 23.296875 -46.40625 L 23.296875 -2.203125 C 23.296875 -1.335938 23.160156 -0.753906 22.890625 -0.453125 C 22.628906 -0.148438 22.03125 0 21.09375 0 Z M 7.796875 0" transform="translate(231.058 405.9)"/></g></g></g><g fill="#33144D"><g><g><path d="M 5.203125 -71.90625 C 5.203125 -73.4375 5.832031 -74.203125 7.09375 -74.203125 L 61.09375 -74.203125 C 62.300781 -74.203125 62.90625 -73.5 62.90625 -72.09375 L 62.796875 -60.5 C 62.796875 -58.695312 61.929688 -57.796875 60.203125 -57.796875 L 30.203125 -57.796875 C 28.671875 -57.796875 27.90625 -57.164062 27.90625 -55.90625 L 27.90625 -47.40625 C 27.90625 -46.738281 28.070312 -46.21875 28.40625 -45.84375 C 28.738281 -45.476562 29.171875 -45.296875 29.703125 -45.296875 L 47.703125 -45.296875 C 49.097656 -45.296875 49.796875 -44.628906 49.796875 -43.296875 L 49.796875 -30.90625 C 49.796875 -29.769531 49.195312 -29.203125 48 -29.203125 L 29.5 -29.203125 C 29.03125 -29.203125 28.644531 -29.066406 28.34375 -28.796875 C 28.050781 -28.535156 27.90625 -28.203125 27.90625 -27.796875 L 27.90625 -17.796875 C 27.90625 -17.265625 27.988281 -16.898438 28.15625 -16.703125 C 28.320312 -16.503906 28.632812 -16.40625 29.09375 -16.40625 L 61.59375 -16.40625 C 63.0625 -16.40625 63.796875 -15.769531 63.796875 -14.5 L 63.796875 -2.203125 C 63.796875 -1.535156 63.59375 -1 63.1875 -0.59375 C 62.789062 -0.195312 62.195312 0 61.40625 0 L 7.90625 0 C 6.90625 0 6.203125 -0.195312 5.796875 -0.59375 C 5.398438 -1 5.203125 -1.632812 5.203125 -2.5 Z M 5.203125 -71.90625" transform="translate(328.754 405.9)"/></g></g></g><g fill="#33144D"><g><g><path d="M 70.09375 -3.203125 C 70.226562 -2.929688 70.296875 -2.5625 70.296875 -2.09375 C 70.296875 -1.5 70.113281 -1 69.75 -0.59375 C 69.382812 -0.195312 68.898438 0 68.296875 0 L 48.90625 0 C 47.5 0 46.597656 -0.695312 46.203125 -2.09375 L 36.796875 -27.90625 C 36.597656 -28.4375 36.265625 -28.832031 35.796875 -29.09375 C 35.328125 -29.363281 34.628906 -29.5 33.703125 -29.5 L 29.09375 -29.5 C 28.695312 -29.5 28.398438 -29.363281 28.203125 -29.09375 C 28.003906 -28.832031 27.90625 -28.601562 27.90625 -28.40625 L 27.90625 -2.90625 C 27.90625 -1.832031 27.632812 -1.078125 27.09375 -0.640625 C 26.5625 -0.210938 25.726562 0 24.59375 0 L 7.796875 0 C 6.796875 0 6.113281 -0.195312 5.75 -0.59375 C 5.382812 -1 5.203125 -1.632812 5.203125 -2.5 L 5.203125 -71.90625 C 5.203125 -73.4375 5.832031 -74.203125 7.09375 -74.203125 L 40.5 -74.203125 C 50.164062 -74.203125 57.664062 -72.347656 63 -68.640625 C 68.332031 -64.941406 71 -59.726562 71 -53 C 71 -48.394531 69.78125 -44.289062 67.34375 -40.6875 C 64.914062 -37.09375 61.769531 -34.5625 57.90625 -33.09375 C 57.5 -32.894531 57.296875 -32.5625 57.296875 -32.09375 C 57.296875 -31.894531 57.363281 -31.597656 57.5 -31.203125 Z M 39.59375 -44.40625 C 42.132812 -44.40625 44.085938 -45.050781 45.453125 -46.34375 C 46.816406 -47.644531 47.5 -49.394531 47.5 -51.59375 C 47.5 -54.0625 46.679688 -55.976562 45.046875 -57.34375 C 43.410156 -58.71875 41.394531 -59.40625 39 -59.40625 L 30.203125 -59.40625 C 29.335938 -59.40625 28.738281 -59.253906 28.40625 -58.953125 C 28.070312 -58.648438 27.90625 -58.132812 27.90625 -57.40625 L 27.90625 -46.5 C 27.90625 -45.769531 28.019531 -45.238281 28.25 -44.90625 C 28.476562 -44.570312 28.925781 -44.40625 29.59375 -44.40625 Z M 39.59375 -44.40625" transform="translate(395.851 405.9)"/></g></g></g><g fill="#33144D"><g><g><path d="M 4.296875 0 C 3.765625 0 3.332031 -0.179688 3 -0.546875 C 2.664062 -0.910156 2.5 -1.425781 2.5 -2.09375 C 2.5 -2.5625 2.597656 -3.097656 2.796875 -3.703125 L 27 -71.90625 C 27.332031 -72.769531 27.695312 -73.367188 28.09375 -73.703125 C 28.5 -74.035156 29.132812 -74.203125 30 -74.203125 L 49.703125 -74.203125 C 50.503906 -74.203125 51.21875 -73.953125 51.84375 -73.453125 C 52.476562 -72.953125 52.960938 -72.300781 53.296875 -71.5 L 77.296875 -3.40625 C 77.429688 -2.863281 77.5 -2.460938 77.5 -2.203125 C 77.5 -1.597656 77.363281 -1.078125 77.09375 -0.640625 C 76.832031 -0.210938 76.4375 0 75.90625 0 L 56.296875 0 C 55.160156 0 54.425781 -0.566406 54.09375 -1.703125 L 50.203125 -13.203125 C 50.003906 -13.671875 49.820312 -13.988281 49.65625 -14.15625 C 49.488281 -14.320312 49.171875 -14.40625 48.703125 -14.40625 L 27.5 -14.40625 C 26.695312 -14.40625 26.195312 -14.035156 26 -13.296875 L 21.90625 -1.5 C 21.5 -0.5 20.695312 0 19.5 0 Z M 43.703125 -31.40625 C 44.429688 -31.40625 44.796875 -31.738281 44.796875 -32.40625 C 44.796875 -32.53125 44.726562 -32.863281 44.59375 -33.40625 L 38.59375 -50.5 C 38.46875 -50.832031 38.269531 -51 38 -51 C 37.726562 -51 37.53125 -50.832031 37.40625 -50.5 L 31.296875 -33.5 C 31.160156 -33.226562 31.09375 -32.894531 31.09375 -32.5 C 31.09375 -31.769531 31.492188 -31.40625 32.296875 -31.40625 Z M 43.703125 -31.40625" transform="translate(469.749 405.9)"/></g></g></g><g fill="#33144D"><g><g><path d="M 2.796875 -71.90625 C 2.796875 -72.570312 3.007812 -73.117188 3.4375 -73.546875 C 3.875 -73.984375 4.492188 -74.203125 5.296875 -74.203125 L 65.09375 -74.203125 C 65.894531 -74.203125 66.507812 -73.984375 66.9375 -73.546875 C 67.375 -73.117188 67.59375 -72.570312 67.59375 -71.90625 L 67.59375 -60 C 67.59375 -58.726562 66.863281 -58.09375 65.40625 -58.09375 L 47.703125 -58.09375 C 46.898438 -58.09375 46.5 -57.757812 46.5 -57.09375 L 46.5 -2.203125 C 46.5 -1.460938 46.332031 -0.910156 46 -0.546875 C 45.664062 -0.179688 45.195312 0 44.59375 0 L 25.59375 0 C 24.394531 0 23.796875 -0.664062 23.796875 -2 L 23.796875 -56.703125 C 23.796875 -57.628906 23.429688 -58.09375 22.703125 -58.09375 L 5.09375 -58.09375 C 3.5625 -58.09375 2.796875 -58.726562 2.796875 -60 Z M 2.796875 -71.90625" transform="translate(549.645 405.9)"/></g></g></g><g fill="#33144D"><g><g><path d="M 5.203125 -71.90625 C 5.203125 -73.4375 5.832031 -74.203125 7.09375 -74.203125 L 61.09375 -74.203125 C 62.300781 -74.203125 62.90625 -73.5 62.90625 -72.09375 L 62.796875 -60.5 C 62.796875 -58.695312 61.929688 -57.796875 60.203125 -57.796875 L 30.203125 -57.796875 C 28.671875 -57.796875 27.90625 -57.164062 27.90625 -55.90625 L 27.90625 -47.40625 C 27.90625 -46.738281 28.070312 -46.21875 28.40625 -45.84375 C 28.738281 -45.476562 29.171875 -45.296875 29.703125 -45.296875 L 47.703125 -45.296875 C 49.097656 -45.296875 49.796875 -44.628906 49.796875 -43.296875 L 49.796875 -30.90625 C 49.796875 -29.769531 49.195312 -29.203125 48 -29.203125 L 29.5 -29.203125 C 29.03125 -29.203125 28.644531 -29.066406 28.34375 -28.796875 C 28.050781 -28.535156 27.90625 -28.203125 27.90625 -27.796875 L 27.90625 -17.796875 C 27.90625 -17.265625 27.988281 -16.898438 28.15625 -16.703125 C 28.320312 -16.503906 28.632812 -16.40625 29.09375 -16.40625 L 61.59375 -16.40625 C 63.0625 -16.40625 63.796875 -15.769531 63.796875 -14.5 L 63.796875 -2.203125 C 63.796875 -1.535156 63.59375 -1 63.1875 -0.59375 C 62.789062 -0.195312 62.195312 0 61.40625 0 L 7.90625 0 C 6.90625 0 6.203125 -0.195312 5.796875 -0.59375 C 5.398438 -1 5.203125 -1.632812 5.203125 -2.5 Z M 5.203125 -71.90625" transform="translate(620.043 405.9)"/></g></g></g></svg>