<svg width="635" height="620" viewBox="0 0 635 620" fill="none" xmlns="http://www.w3.org/2000/svg">
<path d="M499.32 215.41C530.159 253.101 540.438 305.967 564.913 353.938C589.388 401.42 627.569 444.496 633.933 491.488C640.296 537.99 614.842 588.898 584.983 650.575C555.123 712.252 519.879 785.188 475.824 774.419C431.769 764.139 378.414 670.155 296.667 654.491C214.921 638.827 104.783 701.483 58.7701 686.798C12.7571 672.113 30.8686 580.577 23.0366 495.893C15.2046 410.72 -18.5709 332.4 13.7361 293.24C46.0431 254.57 144.433 255.549 213.942 234.99C283.451 214.431 323.59 172.334 369.603 163.033C415.616 153.733 467.992 177.229 499.32 215.41Z" fill="#E3F3FF"/>
<g clip-path="url(#clip0_147_12)">
<path d="M574.899 581.825C574.899 602.907 460.979 620 320.449 620C179.919 620 66 602.907 66 581.825C66 566.899 123.103 553.969 206.325 547.696C240.642 545.102 279.417 543.649 320.449 543.649C337.317 543.649 353.799 543.895 369.739 544.363C486.678 547.811 574.899 563.27 574.899 581.825Z" fill="#3F3D56"/>
<path opacity="0.1" d="M287.617 589.624C341.562 589.624 385.293 584.294 385.293 577.72C385.293 571.145 341.562 565.815 287.617 565.815C233.672 565.815 189.941 571.145 189.941 577.72C189.941 584.294 233.672 589.624 287.617 589.624Z" fill="black"/>
<path d="M287.207 586.34C338.205 586.34 379.547 542.232 379.547 487.823C379.547 433.413 338.205 389.305 287.207 389.305C236.208 389.305 194.866 433.413 194.866 487.823C194.866 542.232 236.208 586.34 287.207 586.34Z" fill="#389AA7"/>
<path d="M316.345 546.112H258.889V598.655H316.345V546.112Z" fill="#AFF5FF"/>
<path d="M391.449 558.838L388.166 576.899L409.506 580.183L423.46 571.973L422.639 558.838H391.449Z" fill="#575A89"/>
<path d="M283.923 219.773C283.923 219.773 282.282 238.656 278.178 239.477C274.074 240.298 287.207 273.137 287.207 273.137H306.906L322.501 269.032L315.114 250.971C315.114 250.971 305.264 237.835 312.652 227.162C320.039 216.489 283.923 219.773 283.923 219.773Z" fill="#A0616A"/>
<path opacity="0.1" d="M283.923 219.773C283.923 219.773 282.282 238.656 278.178 239.477C274.074 240.298 287.207 273.137 287.207 273.137H306.906L322.501 269.032L315.114 250.971C315.114 250.971 305.264 237.835 312.652 227.162C320.039 216.489 283.923 219.773 283.923 219.773Z" fill="black"/>
<path d="M242.883 364.265C242.883 364.265 221.542 405.314 238.779 413.524C256.016 421.734 260.12 420.913 260.12 423.376C260.12 425.839 256.837 425.018 258.479 429.123C260.12 433.228 255.195 449.647 260.12 459.499C265.045 469.351 263.403 476.739 263.403 476.739C263.403 476.739 263.403 477.56 265.045 480.844C266.687 484.128 267.507 486.591 266.687 488.233C265.866 489.875 260.941 500.548 265.866 503.011C270.791 505.474 296.236 507.116 298.698 503.011C301.16 498.906 296.236 496.443 298.698 493.98C301.16 491.517 302.802 490.696 301.16 489.054C299.519 487.412 297.877 466.888 297.877 466.888C297.877 466.888 301.981 443.079 300.34 439.795C298.698 436.511 296.236 433.228 297.877 430.765C299.519 428.302 301.16 429.123 301.981 425.839C302.802 422.555 304.444 415.166 304.444 415.166L313.472 414.345L334.813 418.45C334.813 418.45 358.617 444.721 384.882 452.931C384.882 452.931 392.27 460.32 394.732 460.32C397.194 460.32 397.194 460.32 396.374 461.962C395.553 463.604 393.09 463.604 394.732 465.246C396.374 466.888 398.836 464.425 397.194 466.888C395.553 469.351 393.911 469.351 395.553 470.993C397.194 472.634 394.732 481.665 394.732 482.486C394.732 483.307 387.345 560.479 389.807 562.121C392.27 563.763 426.743 568.689 429.206 562.121C431.668 555.553 427.564 547.343 427.564 547.343C427.564 547.343 439.876 448.826 436.593 442.258C433.31 435.69 421.819 406.135 360.258 387.253C360.258 387.253 343.021 383.969 343.021 381.506C343.021 379.043 341.38 363.444 338.097 362.623C334.813 361.802 315.935 360.982 315.935 360.982L292.131 368.37L259.299 362.623L242.883 364.265Z" fill="#2F2E41"/>
<path d="M271.611 502.19L267.507 516.967C267.507 516.967 264.224 540.776 268.328 546.523C271.552 551.037 277.307 556.564 287.982 557.534C290.973 557.808 293.969 557.053 296.473 555.393C298.978 553.734 300.84 551.269 301.754 548.406C301.876 548.064 301.953 547.706 301.981 547.344C301.981 545.702 299.519 525.998 299.519 525.998L295.415 505.474L294.594 499.727L271.611 502.19Z" fill="#2F2E41"/>
<path d="M391.449 572.794C391.449 572.794 387.345 568.689 386.524 572.794C385.703 576.899 382.42 594.139 388.166 594.96C393.911 595.781 448.905 603.991 454.651 600.707C460.396 597.423 471.067 592.497 464.5 590.034C457.934 587.571 439.055 580.183 439.055 580.183C439.055 580.183 428.385 566.226 426.743 565.405C425.102 564.584 416.073 566.226 411.969 569.51C407.865 572.794 391.449 572.794 391.449 572.794Z" fill="#2F2E41"/>
<path d="M303.623 237.014C317.676 237.014 329.068 225.619 329.068 211.564C329.068 197.508 317.676 186.113 303.623 186.113C289.57 186.113 278.178 197.508 278.178 211.564C278.178 225.619 289.57 237.014 303.623 237.014Z" fill="#A0616A"/>
<path d="M301.16 269.032L291.311 258.359L280.393 237.014C280.393 237.014 272.432 234.551 270.791 238.656C269.149 242.761 239.6 255.896 239.6 255.896C239.6 255.896 246.987 324.859 243.704 331.426C240.421 337.994 234.675 364.265 239.6 366.728C244.525 369.191 267.507 366.728 274.895 370.012C282.282 373.296 303.623 373.296 309.368 369.191C315.114 365.086 316.756 361.803 322.501 364.265C327.393 366.362 338.828 294.679 342.12 273.317C342.397 271.523 342.167 269.687 341.455 268.017C340.743 266.347 339.578 264.909 338.091 263.868C330.726 258.7 317.462 249.796 315.114 250.971C311.831 252.613 301.16 269.032 301.16 269.032Z" fill="#3F3D56"/>
<path d="M336.455 265.748C338.382 266.23 340.116 267.29 341.424 268.787C342.731 270.283 343.549 272.144 343.769 274.119L350.409 333.889C350.409 333.889 333.993 369.191 325.785 345.383C317.576 321.575 336.455 265.748 336.455 265.748Z" fill="#50B3C0"/>
<path d="M334.813 339.636L352.871 334.71C352.871 334.71 356.154 357.698 359.437 357.698C362.721 357.698 347.946 370.833 340.559 369.191C333.172 367.549 322.501 361.803 321.68 357.698C320.86 353.593 329.068 336.352 329.068 336.352L334.813 339.636Z" fill="#50B3C0"/>
<path d="M284.415 222.543C286.145 218.727 285.844 214.276 287.275 210.337C288.041 208.229 289.284 206.326 290.907 204.777C292.53 203.228 294.489 202.076 296.63 201.41C298.772 200.744 301.039 200.582 303.254 200.937C305.469 201.292 307.572 202.155 309.398 203.457C311.238 204.769 313.083 206.613 315.329 206.362C317.747 206.093 319.905 203.394 322.128 204.383C324.593 205.479 323.927 209.897 326.425 210.918C327.739 211.455 329.292 210.628 330.05 209.427C330.713 208.165 331.074 206.767 331.106 205.342C331.45 201.84 331.761 198.134 330.243 194.961C329.605 193.885 329.048 192.762 328.578 191.603C328.313 190.52 328.206 189.404 328.262 188.291C328.248 184.175 327.948 179.882 325.877 176.326C323.579 172.379 319.331 169.855 314.9 168.754C310.469 167.653 305.826 167.822 301.276 168.207C293.755 168.844 285.911 170.209 279.986 174.886C279.18 175.474 278.487 176.203 277.939 177.036C277.419 178.027 277.052 179.09 276.849 180.19C275.568 185.408 273.647 190.448 271.13 195.195C269.919 197.208 268.93 199.345 268.179 201.571C267.551 203.832 267.593 206.409 268.908 208.353C269.979 209.935 271.691 210.778 273.037 212.072C274.369 213.354 274.993 215.819 276.47 216.79C277.758 217.637 279.302 217.039 280.617 217.937C282.305 219.09 282.427 221.619 284.415 222.543Z" fill="#2F2E41"/>
<path d="M305.264 281.347L307.727 276.421C307.727 276.421 343.842 287.094 351.229 296.945C351.229 296.945 369.287 285.452 379.137 287.094L388.986 288.735L358.617 315.828L320.039 312.544L305.264 281.347Z" fill="#F2F2F2"/>
<path d="M303.623 276.421L269.97 323.217L318.397 347.025C318.397 347.025 322.925 349.488 326.407 347.025L358.617 332.247L388.986 288.735L358.617 304.334C358.617 304.334 355.333 297.766 348.767 301.05L303.623 276.421Z" fill="#AFF5FF"/>
<path d="M355.333 359.34L361.9 342.099C361.9 342.099 376.674 323.217 368.466 314.186C360.258 305.155 351.229 340.457 351.229 340.457L355.333 359.34Z" fill="#A0616A"/>
<path d="M279.571 356.588L293.899 344.97C293.899 344.97 316.151 336.05 313.581 324.119C311.011 312.188 285.493 338.195 285.493 338.195L279.571 356.588Z" fill="#A0616A"/>
<path opacity="0.1" d="M244.114 273.547H243.294C243.294 273.547 230.571 258.359 228.109 278.884C225.646 299.408 217.438 367.549 238.779 370.012C260.12 372.475 275.305 359.75 275.305 359.75C275.305 359.75 290.9 335.942 285.155 335.942C282.375 335.942 274.814 334.693 267.918 335.121C260.561 335.577 253.951 337.65 254.375 335.531C255.195 331.426 267.097 279.294 244.114 273.547Z" fill="black"/>
<path d="M242.883 257.538L239.6 255.896C239.6 255.896 226.467 258.359 224.005 278.884C221.542 299.408 213.334 367.549 234.675 370.012C256.016 372.475 284.744 366.728 284.744 366.728C284.744 366.728 290.49 335.531 284.744 335.531C278.999 335.531 249.45 339.636 250.27 335.531C251.091 331.426 265.866 263.285 242.883 257.538Z" fill="#50B3C0"/>
<path d="M343.432 349.899L352.483 336.023L358.206 358.929L343.432 365.497V349.899Z" fill="#50B3C0"/>
<g filter="url(#filter0_d_147_12)">
<path d="M157.498 152.043C169.737 152.043 179.659 142.118 179.659 129.876C179.659 117.634 169.737 107.71 157.498 107.71C145.258 107.71 135.336 117.634 135.336 129.876C135.336 142.118 145.258 152.043 157.498 152.043Z" fill="#77CFDC"/>
<path d="M179.159 129.876C179.159 141.842 169.461 151.543 157.498 151.543C145.534 151.543 135.836 141.842 135.836 129.876C135.836 117.91 145.534 108.21 157.498 108.21C169.461 108.21 179.159 117.91 179.159 129.876Z" stroke="#77CFDC"/>
</g>
<g filter="url(#filter1_d_147_12)">
<path d="M183.763 294.893H131.232V347.435H183.763V294.893Z" fill="#77CFDC"/>
<path d="M131.732 346.935V295.393H183.263V346.935H131.732Z" stroke="#77CFDC"/>
</g>
<g filter="url(#filter2_d_147_12)">
<path d="M371.339 60L384.635 83.0342L397.931 106.068H371.339H344.748L358.043 83.0342L371.339 60Z" fill="#3F3D56"/>
<path d="M358.476 83.2841L371.339 61.0001L384.202 83.2841L397.065 105.568H371.339H345.613L358.476 83.2841Z" stroke="#3F3D56"/>
</g>
</g>
<g filter="url(#filter3_d_147_12)">
<path d="M603 195.141C602.682 204.968 600.29 212.845 595.822 218.772C591.354 224.699 586.045 227.663 579.897 227.663C574.889 227.663 570.5 224.763 566.73 218.962C562.958 213.161 561.072 204.238 561.073 192.193C561.073 189.531 561.136 186.995 561.263 184.586C561.389 182.177 561.548 179.895 561.738 177.739L565.066 146.453H543.104C539.301 186.012 536.179 209.548 533.739 217.06C531.298 224.573 527.163 228.329 521.332 228.329C518.7 228.264 516.189 227.212 514.296 225.381C513.199 224.409 512.332 223.205 511.756 221.856C511.181 220.508 510.912 219.048 510.969 217.583C510.969 214.668 513.266 210.595 517.862 205.364C522.456 200.134 525.008 195.363 525.515 191.052L531.219 146.453H521.998C519.398 146.469 516.839 147.104 514.534 148.307C512.413 149.282 510.567 150.769 509.162 152.634L505.074 158.72H501.747C504.851 149.085 508.67 141.842 513.203 136.991C517.734 132.141 522.947 129.717 528.843 129.717H601.479V146.453H576.95C576.189 154.061 575.603 161.668 575.191 169.276C574.778 176.883 574.572 184.522 574.573 192.193C574.573 197.392 575.777 201.608 578.186 204.841C580.594 208.074 583.605 209.691 587.218 209.69C589.436 209.69 591.765 208.787 594.206 206.98C595.365 206.167 596.334 205.113 597.048 203.89C597.762 202.668 598.203 201.305 598.342 199.896C598.532 198.502 598.674 197.408 598.769 196.615C598.864 195.823 598.912 195.332 598.912 195.141H603Z" fill="#3F3D56"/>
<path d="M602.482 195.641C602.1 205.157 599.733 212.753 595.423 218.471C591.027 224.302 585.855 227.163 579.897 227.163C575.119 227.163 570.866 224.408 567.149 218.69L567.149 218.689C563.456 213.01 561.572 204.205 561.573 192.193C561.573 189.539 561.636 187.012 561.762 184.612L561.762 184.612C561.888 182.21 562.046 179.936 562.236 177.787L565.563 146.506L565.622 145.953H565.066H543.104H542.649L542.606 146.405C540.705 166.182 538.974 181.949 537.415 193.708C535.853 205.484 534.467 213.2 533.263 216.906C532.059 220.612 530.453 223.341 528.471 225.142C526.501 226.931 524.132 227.828 521.338 227.829C518.834 227.766 516.445 226.764 514.644 225.022L514.636 225.014L514.628 225.007C513.586 224.084 512.762 222.94 512.216 221.66C511.67 220.38 511.414 218.994 511.468 217.603L511.469 217.593V217.583C511.469 216.249 511.998 214.59 513.127 212.588C514.253 210.592 515.952 208.295 518.237 205.694C522.861 200.431 525.486 195.568 526.011 191.113C526.011 191.112 526.011 191.112 526.012 191.111L531.715 146.517L531.787 145.953H531.219L521.998 145.953L521.995 145.953C519.319 145.969 516.687 146.622 514.314 147.858C512.122 148.868 510.215 150.405 508.763 152.333L508.755 152.344L508.747 152.355L504.808 158.22H502.435C505.489 148.949 509.207 141.999 513.568 137.333L513.568 137.333C518.018 132.57 523.104 130.217 528.843 130.217H600.979V145.953H576.95H576.497L576.452 146.403C575.691 154.018 575.104 161.634 574.692 169.249C574.278 176.865 574.072 184.513 574.073 192.193C574.073 197.469 575.296 201.798 577.785 205.139C580.275 208.483 583.427 210.191 587.218 210.19C589.575 210.19 592.005 209.231 594.498 207.386C595.714 206.532 596.731 205.425 597.48 204.142C598.228 202.86 598.692 201.432 598.838 199.954C599.028 198.564 599.171 197.47 599.266 196.675C599.316 196.254 599.355 195.907 599.38 195.641H602.482Z" stroke="#3F3D56"/>
</g>
<g filter="url(#filter4_d_147_12)">
<path d="M92.2983 165.091L51.4604 141.088C49.5812 139.983 47.0038 140.372 45.7049 141.956L43.3525 144.825C42.0535 146.409 42.524 148.59 44.4032 149.694L85.2411 173.698C87.1202 174.803 89.6977 174.414 90.9966 172.83L93.349 169.961C94.648 168.376 94.1774 166.196 92.2983 165.091Z" fill="#3F3D56"/>
<path d="M51.1434 141.474L91.9812 165.478C93.6479 166.458 94.0236 168.359 92.918 169.707L90.5656 172.576C89.4599 173.925 87.2248 174.291 85.5581 173.311L44.7202 149.308C43.0535 148.328 42.6779 146.427 43.7835 145.078L46.1359 142.209C47.2415 140.861 49.4767 140.494 51.1434 141.474Z" stroke="#3F3D56"/>
</g>
<g filter="url(#filter5_d_147_12)">
<path d="M502.386 28.4486L508.849 43.4516C509.134 44.1103 509.108 44.7495 508.769 45.3693C508.431 45.9891 507.879 46.4091 507.114 46.6293L501.633 48.3409C500.882 48.5941 500.135 48.5751 499.391 48.284C498.647 47.9928 498.146 47.5231 497.887 46.8748L491.365 31.89L473.658 37.3916C472.907 37.6448 472.16 37.6258 471.416 37.3346C470.672 37.0435 470.171 36.5738 469.912 35.9254L467.901 31.2815C467.604 30.6454 467.624 30.0174 467.963 29.3976C468.301 28.7778 468.859 28.3466 469.636 28.1038L487.322 22.5528L480.84 7.58358C480.555 6.92487 480.582 6.28563 480.92 5.66586C481.259 5.04608 481.816 4.6148 482.594 4.37202L488.075 2.66042C488.814 2.42978 489.555 2.46003 490.299 2.75118C491.042 3.04233 491.55 3.5008 491.821 4.12657L498.324 19.1452L516.05 13.6098C516.788 13.3791 517.53 13.4094 518.274 13.7005C519.017 13.9917 519.525 14.4502 519.796 15.0759L521.807 19.7198C522.092 20.3785 522.065 21.0178 521.727 21.6376C521.389 22.2573 520.831 22.6886 520.053 22.9314L502.386 28.4486Z" fill="#77CFDC"/>
<path d="M502.252 28.0005L501.691 28.1759L501.896 28.6522L508.359 43.6552L508.36 43.6559C508.597 44.2048 508.568 44.7034 508.304 45.1871C508.04 45.6696 507.62 45.9969 506.994 46.1774L506.994 46.1772L506.981 46.1812L501.5 47.8929L501.5 47.8927L501.487 47.897C500.874 48.1036 500.264 48.0932 499.631 47.8451C498.997 47.597 498.592 47.2106 498.381 46.6816L498.381 46.6815L498.376 46.6698L491.855 31.685L491.687 31.3004L491.233 31.4416L473.526 36.9432L473.525 36.9431L473.512 36.9477C472.899 37.1543 472.289 37.1439 471.656 36.8958C471.022 36.6477 470.617 36.2612 470.406 35.7322L470.406 35.7321L470.402 35.7212L468.391 31.0773L468.391 31.0772L468.386 31.0664C468.142 30.5452 468.165 30.0624 468.428 29.5798C468.692 29.0961 469.122 28.7542 469.77 28.5519L469.771 28.5516L487.456 23.0006L488.018 22.8244L487.812 22.3485L481.33 7.37931C481.092 6.83034 481.122 6.33181 481.386 5.84809C481.65 5.36438 482.079 5.02245 482.727 4.82012L488.208 3.10852C488.809 2.92079 489.418 2.93925 490.059 3.19003C490.7 3.44081 491.111 3.82152 491.331 4.33084L497.835 19.3494L498.002 19.7356L498.457 19.5933L516.183 14.0579C516.784 13.8702 517.393 13.8886 518.034 14.1394C518.675 14.3902 519.086 14.7709 519.306 15.2802L521.317 19.9241C521.555 20.4731 521.525 20.9716 521.261 21.4553C520.997 21.939 520.568 22.281 519.92 22.4833L502.252 28.0005Z" stroke="#77CFDC"/>
</g>
<g filter="url(#filter6_d_147_12)">
<path d="M466.929 248.755L451.502 248.571L451.75 233.661C451.781 231.831 450.27 230.329 448.377 230.307L444.949 230.266C443.056 230.243 441.496 231.709 441.465 233.538L441.217 248.448L425.79 248.264C423.897 248.242 422.338 249.707 422.307 251.537L422.252 254.85C422.222 256.68 423.732 258.182 425.625 258.205L441.052 258.389L440.804 273.299C440.774 275.128 442.284 276.63 444.177 276.653L447.606 276.694C449.499 276.716 451.058 275.251 451.089 273.421L451.337 258.511L466.764 258.695C468.657 258.718 470.217 257.252 470.247 255.423L470.302 252.109C470.333 250.28 468.822 248.777 466.929 248.755Z" fill="#3F3D56"/>
<path d="M451.002 248.565L450.994 249.065L451.494 249.071L466.921 249.255C468.554 249.274 469.828 250.566 469.802 252.103L469.747 255.417C469.722 256.954 468.405 258.215 466.772 258.195L451.345 258.011L450.845 258.005L450.837 258.505L450.589 273.415C450.563 274.953 449.247 276.213 447.614 276.194L444.186 276.153C442.553 276.134 441.279 274.842 441.304 273.305L441.552 258.394L441.56 257.895L441.06 257.889L425.633 257.705C424 257.685 422.726 256.394 422.752 254.856L422.807 251.543C422.833 250.005 424.149 248.745 425.782 248.764L441.209 248.948L441.709 248.954L441.717 248.454L441.965 233.544C441.991 232.007 443.307 230.746 444.94 230.766L448.369 230.806C450.002 230.826 451.276 232.117 451.25 233.655L451.002 248.565Z" stroke="#3F3D56"/>
</g>
<g filter="url(#filter7_d_147_12)">
<path d="M260.815 44.9678C256.449 45.5428 253.46 49.0049 254.14 52.7017C254.819 56.3985 258.908 58.9285 263.274 58.3535C267.64 57.7785 270.629 54.3164 269.95 50.6197C269.27 46.9229 265.181 44.3928 260.815 44.9678ZM257.126 24.8893C261.493 24.3143 264.481 20.8521 263.802 17.1554C263.123 13.4586 259.034 10.9285 254.667 11.5035C250.301 12.0785 247.313 15.5407 247.992 19.2374C248.671 22.9342 252.76 25.4643 257.126 24.8893ZM281.763 26.7859L234.334 33.0319C232.151 33.3194 230.657 35.051 230.996 36.8989L231.611 40.2453C231.95 42.0932 233.996 43.3586 236.178 43.0712L283.608 36.8251C285.79 36.5377 287.285 34.8061 286.945 32.9582L286.331 29.6118C285.991 27.7639 283.946 26.4984 281.763 26.7859Z" fill="#3F3D56"/>
<path d="M254.635 52.6364C254.019 49.2815 256.736 46.0086 260.905 45.4596C265.074 44.9106 268.837 47.33 269.454 50.685C270.07 54.0399 267.353 57.3127 263.184 57.8618C259.015 58.4108 255.252 55.9914 254.635 52.6364ZM263.306 17.2207C263.922 20.5756 261.205 23.8485 257.036 24.3975C252.867 24.9465 249.104 22.5271 248.488 19.1721C247.871 15.8172 250.589 12.5443 254.758 11.9953C258.927 11.4463 262.69 13.8657 263.306 17.2207ZM234.424 33.5237L281.854 27.2776C283.839 27.0162 285.558 28.171 285.835 29.6771L286.45 33.0235C286.726 34.5296 285.503 36.0719 283.517 36.3334L236.088 42.5795C234.102 42.8409 232.383 41.6861 232.107 40.18L231.492 36.8336C231.215 35.3275 232.439 33.7852 234.424 33.5237Z" stroke="#3F3D56"/>
</g>
<defs>
<filter id="filter0_d_147_12" x="133.336" y="106.71" width="54.3234" height="54.3328" filterUnits="userSpaceOnUse" color-interpolation-filters="sRGB">
<feFlood flood-opacity="0" result="BackgroundImageFix"/>
<feColorMatrix in="SourceAlpha" type="matrix" values="0 0 0 0 0 0 0 0 0 0 0 0 0 0 0 0 0 0 127 0" result="hardAlpha"/>
<feOffset dx="3" dy="4"/>
<feGaussianBlur stdDeviation="2.5"/>
<feComposite in2="hardAlpha" operator="out"/>
<feColorMatrix type="matrix" values="0 0 0 0 0.466667 0 0 0 0 0.811765 0 0 0 0 0.862745 0 0 0 0.57 0"/>
<feBlend mode="normal" in2="BackgroundImageFix" result="effect1_dropShadow_147_12"/>
<feBlend mode="normal" in="SourceGraphic" in2="effect1_dropShadow_147_12" result="shape"/>
</filter>
<filter id="filter1_d_147_12" x="129.232" y="293.893" width="62.5315" height="62.5426" filterUnits="userSpaceOnUse" color-interpolation-filters="sRGB">
<feFlood flood-opacity="0" result="BackgroundImageFix"/>
<feColorMatrix in="SourceAlpha" type="matrix" values="0 0 0 0 0 0 0 0 0 0 0 0 0 0 0 0 0 0 127 0" result="hardAlpha"/>
<feOffset dx="3" dy="4"/>
<feGaussianBlur stdDeviation="2.5"/>
<feComposite in2="hardAlpha" operator="out"/>
<feColorMatrix type="matrix" values="0 0 0 0 0.466667 0 0 0 0 0.811765 0 0 0 0 0.862745 0 0 0 0.57 0"/>
<feBlend mode="normal" in2="BackgroundImageFix" result="effect1_dropShadow_147_12"/>
<feBlend mode="normal" in="SourceGraphic" in2="effect1_dropShadow_147_12" result="shape"/>
</filter>
<filter id="filter2_d_147_12" x="342.748" y="59" width="63.1831" height="56.0683" filterUnits="userSpaceOnUse" color-interpolation-filters="sRGB">
<feFlood flood-opacity="0" result="BackgroundImageFix"/>
<feColorMatrix in="SourceAlpha" type="matrix" values="0 0 0 0 0 0 0 0 0 0 0 0 0 0 0 0 0 0 127 0" result="hardAlpha"/>
<feOffset dx="3" dy="4"/>
<feGaussianBlur stdDeviation="2.5"/>
<feComposite in2="hardAlpha" operator="out"/>
<feColorMatrix type="matrix" values="0 0 0 0 0.247059 0 0 0 0 0.239216 0 0 0 0 0.337255 0 0 0 0.57 0"/>
<feBlend mode="normal" in2="BackgroundImageFix" result="effect1_dropShadow_147_12"/>
<feBlend mode="normal" in="SourceGraphic" in2="effect1_dropShadow_147_12" result="shape"/>
</filter>
<filter id="filter3_d_147_12" x="499.747" y="128.717" width="111.253" height="108.612" filterUnits="userSpaceOnUse" color-interpolation-filters="sRGB">
<feFlood flood-opacity="0" result="BackgroundImageFix"/>
<feColorMatrix in="SourceAlpha" type="matrix" values="0 0 0 0 0 0 0 0 0 0 0 0 0 0 0 0 0 0 127 0" result="hardAlpha"/>
<feOffset dx="3" dy="4"/>
<feGaussianBlur stdDeviation="2.5"/>
<feComposite in2="hardAlpha" operator="out"/>
<feColorMatrix type="matrix" values="0 0 0 0 0.247059 0 0 0 0 0.239216 0 0 0 0 0.337255 0 0 0 0.57 0"/>
<feBlend mode="normal" in2="BackgroundImageFix" result="effect1_dropShadow_147_12"/>
<feBlend mode="normal" in="SourceGraphic" in2="effect1_dropShadow_147_12" result="shape"/>
</filter>
<filter id="filter4_d_147_12" x="40.6184" y="139.459" width="61.4647" height="43.8679" filterUnits="userSpaceOnUse" color-interpolation-filters="sRGB">
<feFlood flood-opacity="0" result="BackgroundImageFix"/>
<feColorMatrix in="SourceAlpha" type="matrix" values="0 0 0 0 0 0 0 0 0 0 0 0 0 0 0 0 0 0 127 0" result="hardAlpha"/>
<feOffset dx="3" dy="4"/>
<feGaussianBlur stdDeviation="2.5"/>
<feComposite in2="hardAlpha" operator="out"/>
<feColorMatrix type="matrix" values="0 0 0 0 0.247059 0 0 0 0 0.239216 0 0 0 0 0.337255 0 0 0 0.57 0"/>
<feBlend mode="normal" in2="BackgroundImageFix" result="effect1_dropShadow_147_12"/>
<feBlend mode="normal" in="SourceGraphic" in2="effect1_dropShadow_147_12" result="shape"/>
</filter>
<filter id="filter5_d_147_12" x="465.692" y="1.50749" width="64.3099" height="56.0101" filterUnits="userSpaceOnUse" color-interpolation-filters="sRGB">
<feFlood flood-opacity="0" result="BackgroundImageFix"/>
<feColorMatrix in="SourceAlpha" type="matrix" values="0 0 0 0 0 0 0 0 0 0 0 0 0 0 0 0 0 0 127 0" result="hardAlpha"/>
<feOffset dx="3" dy="4"/>
<feGaussianBlur stdDeviation="2.5"/>
<feComposite in2="hardAlpha" operator="out"/>
<feColorMatrix type="matrix" values="0 0 0 0 0.466667 0 0 0 0 0.811765 0 0 0 0 0.862745 0 0 0 0.57 0"/>
<feBlend mode="normal" in2="BackgroundImageFix" result="effect1_dropShadow_147_12"/>
<feBlend mode="normal" in="SourceGraphic" in2="effect1_dropShadow_147_12" result="shape"/>
</filter>
<filter id="filter6_d_147_12" x="420.252" y="229.265" width="58.0512" height="56.4287" filterUnits="userSpaceOnUse" color-interpolation-filters="sRGB">
<feFlood flood-opacity="0" result="BackgroundImageFix"/>
<feColorMatrix in="SourceAlpha" type="matrix" values="0 0 0 0 0 0 0 0 0 0 0 0 0 0 0 0 0 0 127 0" result="hardAlpha"/>
<feOffset dx="3" dy="4"/>
<feGaussianBlur stdDeviation="2.5"/>
<feComposite in2="hardAlpha" operator="out"/>
<feColorMatrix type="matrix" values="0 0 0 0 0.247059 0 0 0 0 0.239216 0 0 0 0 0.337255 0 0 0 0.57 0"/>
<feBlend mode="normal" in2="BackgroundImageFix" result="effect1_dropShadow_147_12"/>
<feBlend mode="normal" in="SourceGraphic" in2="effect1_dropShadow_147_12" result="shape"/>
</filter>
<filter id="filter7_d_147_12" x="228.948" y="10.4221" width="66.0455" height="57.0129" filterUnits="userSpaceOnUse" color-interpolation-filters="sRGB">
<feFlood flood-opacity="0" result="BackgroundImageFix"/>
<feColorMatrix in="SourceAlpha" type="matrix" values="0 0 0 0 0 0 0 0 0 0 0 0 0 0 0 0 0 0 127 0" result="hardAlpha"/>
<feOffset dx="3" dy="4"/>
<feGaussianBlur stdDeviation="2.5"/>
<feComposite in2="hardAlpha" operator="out"/>
<feColorMatrix type="matrix" values="0 0 0 0 0.247059 0 0 0 0 0.239216 0 0 0 0 0.337255 0 0 0 0.57 0"/>
<feBlend mode="normal" in2="BackgroundImageFix" result="effect1_dropShadow_147_12"/>
<feBlend mode="normal" in="SourceGraphic" in2="effect1_dropShadow_147_12" result="shape"/>
</filter>
<clipPath id="clip0_147_12">
<rect width="537" height="560" fill="white" transform="translate(66 60)"/>
</clipPath>
</defs>
</svg>
